<svg id="visual" viewBox="0 0 1920 1080" width="1920" height="1080" xmlns="http://www.w3.org/2000/svg" xmlns:xlink="http://www.w3.org/1999/xlink" version="1.1"><path d="M0 109L175 109L175 185L349 185L349 185L524 185L524 66L698 66L698 66L873 66L873 141L1047 141L1047 174L1222 174L1222 185L1396 185L1396 109L1571 109L1571 141L1745 141L1745 131L1920 131L1920 163L1920 0L1920 0L1745 0L1745 0L1571 0L1571 0L1396 0L1396 0L1222 0L1222 0L1047 0L1047 0L873 0L873 0L698 0L698 0L524 0L524 0L349 0L349 0L175 0L175 0L0 0Z" fill="#cd1900"></path><path d="M0 357L175 357L175 465L349 465L349 444L524 444L524 390L698 390L698 228L873 228L873 617L1047 617L1047 357L1222 357L1222 476L1396 476L1396 401L1571 401L1571 487L1745 487L1745 519L1920 519L1920 433L1920 161L1920 129L1745 129L1745 139L1571 139L1571 107L1396 107L1396 183L1222 183L1222 172L1047 172L1047 139L873 139L873 64L698 64L698 64L524 64L524 183L349 183L349 183L175 183L175 107L0 107Z" fill="#d84600"></path><path d="M0 714L175 714L175 811L349 811L349 692L524 692L524 692L698 692L698 573L873 573L873 800L1047 800L1047 811L1222 811L1222 779L1396 779L1396 746L1571 746L1571 789L1745 789L1745 876L1920 876L1920 789L1920 431L1920 517L1745 517L1745 485L1571 485L1571 399L1396 399L1396 474L1222 474L1222 355L1047 355L1047 615L873 615L873 226L698 226L698 388L524 388L524 442L349 442L349 463L175 463L175 355L0 355Z" fill="#e26600"></path><path d="M0 930L175 930L175 897L349 897L349 897L524 897L524 854L698 854L698 854L873 854L873 973L1047 973L1047 1005L1222 1005L1222 995L1396 995L1396 854L1571 854L1571 897L1745 897L1745 973L1920 973L1920 1005L1920 787L1920 874L1745 874L1745 787L1571 787L1571 744L1396 744L1396 777L1222 777L1222 809L1047 809L1047 798L873 798L873 571L698 571L698 690L524 690L524 690L349 690L349 809L175 809L175 712L0 712Z" fill="#ea8300"></path><path d="M0 1081L175 1081L175 1081L349 1081L349 1081L524 1081L524 1081L698 1081L698 1081L873 1081L873 1081L1047 1081L1047 1081L1222 1081L1222 1081L1396 1081L1396 1081L1571 1081L1571 1081L1745 1081L1745 1081L1920 1081L1920 1081L1920 1003L1920 971L1745 971L1745 895L1571 895L1571 852L1396 852L1396 993L1222 993L1222 1003L1047 1003L1047 971L873 971L873 852L698 852L698 852L524 852L524 895L349 895L349 895L175 895L175 928L0 928Z" fill="#f09e00"></path></svg>